<svg xmlns="http://www.w3.org/2000/svg" width="24" height="18" viewBox="0 0 24 18" fill="none">
  <g clip-path="url(#clip0_1354_39324)">
    <path d="M0 0H24V18H0V0Z" fill="#00008B"/>
    <path d="M1.40625 0L5.98125 3.39375L10.5375 0H12V1.1625L7.5 4.51875L12 7.85625V9H10.5L6 5.64375L1.51875 9H0V7.875L4.48125 4.5375L0 1.2V0H1.40625Z" fill="#F8F8F8"/>
    <path d="M7.95 5.26875L12 8.25V9L6.91875 5.26875H7.95ZM4.5 5.64375L4.6125 6.3L1.0125 9H0L4.5 5.64375ZM12 0V0.05625L7.33125 3.58125L7.36875 2.75625L11.0625 0H12ZM0 0L4.48125 3.3H3.35625L0 0.7875V0Z" fill="#FF0000"/>
    <path d="M4.51875 0V9H7.51875V0H4.51875ZM0 3V6H12V3H0Z" fill="#F8F8F8"/>
    <path d="M0 3.61875V5.41875H12V3.61875H0ZM5.11875 0V9H6.91875V0H5.11875Z" fill="#FF0000"/>
    <path d="M19.7623 14.8762L18.9935 14.9737L19.076 15.7424L18.521 15.2024L17.9698 15.7462L18.0448 14.9774L17.276 14.8874L17.9248 14.4674L17.516 13.8112L18.251 14.0549L18.5098 13.3237L18.776 14.0512L19.5073 13.7999L19.106 14.4599L19.7585 14.8762H19.7623ZM19.6235 10.4812L19.7248 9.99369L19.3573 9.65619L19.8523 9.59994L20.0585 9.14619L20.2648 9.59994L20.7598 9.65619L20.3923 9.99369L20.4935 10.4812L20.0585 10.2337L19.6235 10.4812ZM15.7198 8.23119L14.9585 8.31369L15.026 9.07494L14.486 8.53119L13.931 9.05994L14.021 8.29869L13.2635 8.19744L13.9123 7.79244L13.5185 7.13619L14.2423 7.39119L14.5123 6.67494L14.7635 7.39869L15.491 7.16244L15.0823 7.81119L15.7235 8.23119H15.7198ZM23.3623 7.00119L22.5785 7.10244L22.6648 7.88619L22.0985 7.33494L21.536 7.88994L21.6148 7.10244L20.831 7.01244L21.4948 6.58119L21.0785 5.90994L21.8285 6.16119L22.091 5.41869L22.361 6.16119L23.1073 5.90244L22.6948 6.57744L23.3623 7.00119ZM19.7585 3.86994L18.9823 3.95619L19.0535 4.73619L18.5023 4.18119L17.936 4.72119L18.026 3.94494L17.2498 3.83994L17.9135 3.42744L17.5123 2.75619L18.251 3.01494L18.5248 2.28369L18.7798 3.02244L19.5223 2.77869L19.106 3.43869L19.7585 3.86994ZM8.77477 14.4637L7.05727 14.6662L7.22977 16.3874L5.99977 15.1724L4.76227 16.3799L4.94602 14.6587L3.22852 14.4412L4.68727 13.5112L3.78727 12.0337L5.42227 12.5962L6.01477 10.9687L6.59602 12.5999L8.23477 12.0487L7.32352 13.5187L8.77852 14.4599L8.77477 14.4637Z" fill="#F8F8F8"/>
  </g>
  <defs>
    <clipPath id="clip0_1354_39324">
      <rect width="24" height="18" fill="white"/>
    </clipPath>
  </defs>
</svg>