<svg xmlns="http://www.w3.org/2000/svg" width="24" height="18" viewBox="0 0 24 18" fill="none">
  <g clip-path="url(#clip0_1354_39331)">
    <path d="M0 0H24V18H0V0Z" fill="#EE1C25"/>
    <path d="M2.87979 6.66005L4.49977 1.80005L6.11975 6.66005L1.7998 3.69005H7.19974L2.87979 6.66005Z" fill="#FFFF00"/>
    <path d="M9.90624 1.8932L8.23907 2.26265L9.35113 0.966778L9.24206 2.71085L8.31689 1.16682L9.90624 1.8932Z" fill="#FFFF00"/>
    <path d="M11.5891 4.02541L9.90917 3.71935L11.4368 2.95621L10.6598 4.52147L10.4059 2.73948L11.5891 4.02541Z" fill="#FFFF00"/>
    <path d="M11.3435 7.01705L9.93448 6.05242L11.6405 5.97868L10.2927 7.09095L10.7877 5.36034L11.3435 7.01705Z" fill="#FFFF00"/>
    <path d="M9.22448 8.97141L8.29733 7.53741L9.89944 8.12831L8.22667 8.63372L9.3516 7.22855L9.22448 8.97141Z" fill="#FFFF00"/>
  </g>
  <defs>
    <clipPath id="clip0_1354_39331">
      <rect width="24" height="18" fill="white"/>
    </clipPath>
  </defs>
</svg>