<svg width="24" height="24" viewBox="0 0 24 24" fill="none" xmlns="http://www.w3.org/2000/svg">
<g id="Search">
<mask id="mask0_2043_2135" style="mask-type:alpha" maskUnits="userSpaceOnUse" x="0" y="0" width="24" height="24">
<rect id="Bounding box" width="24" height="24" fill="#D9D9D9"/>
</mask>
<g mask="url(#mask0_2043_2135)">
<path id="search" d="M9.51922 15.6155C7.81154 15.6155 6.3654 15.0232 5.1808 13.8386C3.99618 12.6539 3.40387 11.2078 3.40387 9.50012C3.40387 7.79243 3.99618 6.34628 5.1808 5.16167C6.3654 3.97707 7.81154 3.38477 9.51922 3.38477C11.2269 3.38477 12.6731 3.97707 13.8577 5.16167C15.0423 6.34628 15.6346 7.79243 15.6346 9.50012C15.6346 10.2142 15.5147 10.8963 15.275 11.5463C15.0352 12.1963 14.7153 12.7616 14.3153 13.2424L20.0692 18.9963C20.2077 19.1347 20.2785 19.3088 20.2817 19.5184C20.2849 19.728 20.2141 19.9052 20.0692 20.0501C19.9243 20.195 19.7487 20.2674 19.5423 20.2674C19.3359 20.2674 19.1603 20.195 19.0154 20.0501L13.2615 14.2962C12.7615 14.7091 12.1865 15.0321 11.5365 15.2655C10.8865 15.4988 10.2141 15.6155 9.51922 15.6155ZM9.51922 14.1155C10.8077 14.1155 11.899 13.6684 12.7933 12.7742C13.6875 11.8799 14.1346 10.7886 14.1346 9.50012C14.1346 8.21165 13.6875 7.1203 12.7933 6.22607C11.899 5.33183 10.8077 4.88472 9.51922 4.88472C8.23076 4.88472 7.13941 5.33183 6.24517 6.22607C5.35096 7.1203 4.90385 8.21165 4.90385 9.50012C4.90385 10.7886 5.35096 11.8799 6.24517 12.7742C7.13941 13.6684 8.23076 14.1155 9.51922 14.1155Z" fill="#6F7C8E"/>
</g>
</g>
</svg>
