<svg xmlns="http://www.w3.org/2000/svg" width="48" height="48" viewBox="0 0 48 48" fill="none">
  <path d="M32 32L24 24L16 32" stroke="#B6C1CA" stroke-width="2" stroke-linecap="round" stroke-linejoin="round"/>
  <path d="M24 24V42" stroke="#B6C1CA" stroke-width="2" stroke-linecap="round" stroke-linejoin="round"/>
  <path d="M40.7789 36.7809C42.7296 35.7175 44.2706 34.0347 45.1587 31.9982C46.0468 29.9617 46.2314 27.6874 45.6834 25.5343C45.1353 23.3812 43.8859 21.472 42.1323 20.1078C40.3786 18.7437 38.2207 18.0024 35.9989 18.0009H33.4789C32.8736 15.6594 31.7453 13.4856 30.1788 11.6429C28.6124 9.80025 26.6486 8.33665 24.4351 7.36216C22.2216 6.38767 19.816 5.92766 17.3992 6.01671C14.9823 6.10576 12.6171 6.74154 10.4813 7.87628C8.34552 9.01101 6.49477 10.6152 5.06819 12.5681C3.64161 14.5211 2.67632 16.772 2.2449 19.1517C1.81348 21.5315 1.92715 23.978 2.57737 26.3075C3.22759 28.6369 4.39743 30.7887 5.99894 32.6009" stroke="#B6C1CA" stroke-width="2" stroke-linecap="round" stroke-linejoin="round"/>
  <path d="M32 32L24 24L16 32" stroke="#B6C1CA" stroke-width="2" stroke-linecap="round" stroke-linejoin="round"/>
</svg>