<svg width="40" height="40" viewBox="0 0 40 40" fill="none" xmlns="http://www.w3.org/2000/svg">
<g id="iwwa:file-csv">
<path id="Vector" d="M27.9104 15.0351H27.334V12.254C27.3335 12.2364 27.3318 12.2188 27.3289 12.2013C27.3297 12.0896 27.2898 11.9814 27.2167 11.8969L22.5898 6.61113L22.5864 6.60773C22.5586 6.57779 22.5272 6.55151 22.4928 6.52951L22.4622 6.5108C22.4328 6.49446 22.4018 6.48134 22.3696 6.47169L22.3441 6.46319C22.3087 6.45438 22.2725 6.44981 22.2361 6.44958H10.8627C10.3432 6.44958 9.9215 6.87214 9.9215 7.39078V15.0343H9.34505C8.60196 15.0343 8 15.6362 8 16.3793V23.3749C8 24.1171 8.60281 24.72 9.34505 24.72H9.9215V29.5084C9.9215 30.027 10.3432 30.4496 10.8627 30.4496H26.3928C26.9114 30.4496 27.334 30.027 27.334 29.5084V24.72H27.9104C28.6527 24.72 29.2555 24.118 29.2555 23.3749V16.3793C29.2555 15.6371 28.6535 15.0351 27.9104 15.0351ZM10.8627 7.39078H21.7651V12.2064C21.7651 12.4666 21.9759 12.6766 22.2361 12.6766H26.3937V15.0343H10.8627V7.39078ZM17.9042 20.2869C16.7615 19.8788 16.0074 19.2462 16.0074 18.2472C16.0074 17.0748 16.997 16.188 18.6082 16.188C19.3938 16.188 19.9541 16.341 20.3622 16.534L20.0153 17.7779C19.5707 17.5614 19.0823 17.45 18.5878 17.4523C17.9144 17.4523 17.5879 17.7677 17.5879 18.1146C17.5879 18.5533 17.9646 18.7463 18.8624 19.083C20.0765 19.5319 20.6368 20.1636 20.6368 21.1329C20.6368 22.2858 19.7602 23.2644 17.8736 23.2644C17.088 23.2644 16.3134 23.0501 15.9257 22.8359L16.242 21.5614C16.7759 21.834 17.3652 21.9806 17.9646 21.9899C18.6788 21.9899 19.0563 21.6932 19.0563 21.2451C19.0563 20.8166 18.7306 20.5726 17.9042 20.2869ZM9.80502 19.8176C9.80502 17.482 11.4774 16.1872 13.557 16.1872C14.363 16.1872 14.9744 16.3495 15.2498 16.483L14.9233 17.7167C14.5103 17.5433 14.0662 17.4565 13.6183 17.4616C12.3948 17.4616 11.4366 18.2056 11.4366 19.7351C11.4366 21.1014 12.2519 21.9686 13.6285 21.9686C14.108 21.9686 14.6181 21.8777 14.9335 21.7442L15.1588 22.9677C14.8834 23.0994 14.2304 23.2635 13.4048 23.2635C11.0285 23.2644 9.80502 21.7756 9.80502 19.8176ZM26.3928 29.255H10.8627V24.7208H26.3928V29.255ZM25.1362 23.1624H23.321L21.1189 16.2892H22.8219L23.6576 19.1961C23.8915 20.0216 24.1057 20.797 24.269 21.6532H24.2996C24.4734 20.8362 24.6808 20.0267 24.9211 19.2267L25.7985 16.29H27.4496L25.1362 23.1624Z" fill="#00A81C"/>
</g>
</svg>
