<svg width="20" height="20" viewBox="0 0 20 20" fill="none" xmlns="http://www.w3.org/2000/svg">
<g id="icon">
<g id="elements">
<path id="Vector" d="M11.7284 3.23771C12.3494 2.56491 12.6599 2.2285 12.9898 2.03228C13.7859 1.5588 14.7662 1.54408 15.5756 1.99344C15.9111 2.17967 16.2311 2.5066 16.8712 3.16047C17.5113 3.81434 17.8313 4.14127 18.0136 4.48394C18.4535 5.31077 18.4391 6.31216 17.9756 7.12542C17.7835 7.46247 17.4542 7.77965 16.7956 8.41401L8.95918 15.9618C7.71106 17.1639 7.08699 17.765 6.30704 18.0696C5.52709 18.3743 4.66966 18.3518 2.9548 18.307L2.72147 18.3009C2.19941 18.2872 1.93838 18.2804 1.78665 18.1082C1.63491 17.936 1.65563 17.6701 1.69706 17.1383L1.71956 16.8496C1.83617 15.3528 1.89447 14.6044 2.18675 13.9317C2.47903 13.259 2.98319 12.7127 3.99151 11.6203L11.7284 3.23771Z" stroke="#14181F" stroke-width="1.5" stroke-linejoin="round"/>
<path id="Vector_2" d="M10.834 3.33301L16.6673 9.16634" stroke="#14181F" stroke-width="1.5" stroke-linejoin="round"/>
<path id="Vector_3" d="M11.667 18.333L18.3337 18.333" stroke="#14181F" stroke-width="1.5" stroke-linecap="round" stroke-linejoin="round"/>
</g>
</g>
</svg>
