<svg width="24" height="24" viewBox="0 0 24 24" fill="none" xmlns="http://www.w3.org/2000/svg">
<g id="Filter">
<mask id="mask0_2034_18683" style="mask-type:alpha" maskUnits="userSpaceOnUse" x="0" y="0" width="24" height="24">
<rect id="Bounding box" width="24" height="24" fill="#D9D9D9"/>
</mask>
<g mask="url(#mask0_2034_18683)">
<path id="filter_alt" d="M11.3838 19.5C11.1325 19.5 10.9222 19.4153 10.753 19.2461C10.5838 19.0769 10.4992 18.8666 10.4992 18.6153V12.8269L4.90111 5.71538C4.70881 5.45896 4.68092 5.19229 4.81746 4.91538C4.95399 4.63846 5.18443 4.5 5.50878 4.5H18.4895C18.8138 4.5 19.0443 4.63846 19.1808 4.91538C19.3173 5.19229 19.2895 5.45896 19.0972 5.71538L13.4991 12.8269V18.6153C13.4991 18.8666 13.4145 19.0769 13.2453 19.2461C13.076 19.4153 12.8658 19.5 12.6145 19.5H11.3838ZM11.9991 12.3L16.9491 5.99998H7.04913L11.9991 12.3Z" fill="#6F7C8E"/>
</g>
</g>
</svg>
