<svg xmlns="http://www.w3.org/2000/svg" width="8" height="8" viewBox="0 0 6 8" fill="none">
  <path d="M3.33108 2.62946V2.89123C3.33108 4.292 3.33108 5.6929 3.33108 7.09394C3.33108 7.37736 3.19468 7.57583 2.95006 7.66568C2.71319 7.75103 2.48613 7.7008 2.34197 7.50967C2.24195 7.36745 2.18715 7.19837 2.18474 7.02451C2.17249 5.65764 2.1778 4.29077 2.1778 2.92391V2.66499C2.12889 2.69962 2.08186 2.73684 2.03691 2.77648C1.76165 3.04928 1.49008 3.32617 1.21278 3.59652C0.99348 3.81092 0.694541 3.81133 0.484223 3.60673C0.255118 3.38334 0.239191 3.09584 0.46462 2.86755C1.09081 2.23319 1.72027 1.60278 2.353 0.976311C2.60906 0.723112 2.89002 0.717395 3.14649 0.964469C3.78303 1.57786 4.41494 2.19602 5.04222 2.81895C5.27214 3.04724 5.25785 3.33107 5.02833 3.5569C4.81148 3.76967 4.53215 3.77294 4.30304 3.5569C4.03187 3.29962 3.76683 3.0358 3.49852 2.77525C3.45605 2.73441 3.4099 2.69888 3.33108 2.62946Z" fill="white"/>
</svg>