<svg xmlns="http://www.w3.org/2000/svg" width="24" height="24" viewBox="0 0 24 24" fill="none">
  <path d="M11.7586 9H13.7586L11.5586 19H9.55859L11.7586 9ZM13.4386 5C13.2408 5 13.0475 5.05865 12.883 5.16853C12.7186 5.27841 12.5904 5.43459 12.5147 5.61732C12.439 5.80004 12.4192 6.00111 12.4578 6.19509C12.4964 6.38907 12.5916 6.56725 12.7315 6.70711C12.8713 6.84696 13.0495 6.9422 13.2435 6.98079C13.4375 7.01937 13.6386 6.99957 13.8213 6.92388C14.004 6.84819 14.1602 6.72002 14.2701 6.55557C14.3799 6.39112 14.4386 6.19778 14.4386 6C14.4386 5.73478 14.3332 5.48043 14.1457 5.29289C13.9582 5.10536 13.7038 5 13.4386 5Z" fill="#14181F"/>
</svg>