<svg width="24" height="24" viewBox="0 0 24 24" fill="none" xmlns="http://www.w3.org/2000/svg">
<g id="Print">
<mask id="mask0_2034_6501" style="mask-type:alpha" maskUnits="userSpaceOnUse" x="0" y="0" width="24" height="24">
<rect id="Bounding box" width="24" height="24" fill="#D9D9D9"/>
</mask>
<g mask="url(#mask0_2034_6501)">
<path id="print" d="M8.30826 20.5001C7.81115 20.5001 7.38559 20.3231 7.03159 19.9691C6.67757 19.6151 6.50056 19.1895 6.50056 18.6924V16.5001H4.59674C4.09962 16.5001 3.67406 16.3231 3.32006 15.9691C2.96606 15.6151 2.78906 15.1895 2.78906 14.6924V10.8078C2.78906 10.0995 3.03105 9.50573 3.51501 9.02656C3.99898 8.54741 4.59031 8.30784 5.28901 8.30784H18.7121C19.4204 8.30784 20.0141 8.54741 20.4933 9.02656C20.9724 9.50573 21.212 10.0995 21.212 10.8078V14.6924C21.212 15.1895 21.035 15.6151 20.681 15.9691C20.327 16.3231 19.9015 16.5001 19.4043 16.5001H17.5005V18.6924C17.5005 19.1895 17.3235 19.6151 16.9695 19.9691C16.6155 20.3231 16.1899 20.5001 15.6928 20.5001H8.30826ZM4.59674 15.0001H6.50056C6.5134 14.5142 6.69493 14.0979 7.04516 13.7511C7.3954 13.4043 7.81643 13.2309 8.30826 13.2309H15.6928C16.1846 13.2309 16.6057 13.4043 16.9559 13.7511C17.3061 14.0979 17.4877 14.5142 17.5005 15.0001H19.4043C19.4941 15.0001 19.5678 14.9713 19.6255 14.9136C19.6832 14.8559 19.7121 14.7821 19.7121 14.6924V10.8078C19.7121 10.5245 19.6162 10.287 19.4246 10.0953C19.2329 9.90362 18.9954 9.80779 18.7121 9.80779H5.28901C5.00568 9.80779 4.76818 9.90362 4.57651 10.0953C4.38485 10.287 4.28901 10.5245 4.28901 10.8078V14.6924C4.28901 14.7821 4.31786 14.8559 4.37556 14.9136C4.43326 14.9713 4.50699 15.0001 4.59674 15.0001ZM16.0005 8.30784V5.61554C16.0005 5.52579 15.9717 5.45206 15.914 5.39436C15.8563 5.33668 15.7826 5.30784 15.6928 5.30784H8.30826C8.21851 5.30784 8.14479 5.33668 8.08709 5.39436C8.02939 5.45206 8.00054 5.52579 8.00054 5.61554V8.30784H6.50056V5.61554C6.50056 5.11844 6.67757 4.69288 7.03159 4.33886C7.38559 3.98486 7.81115 3.80786 8.30826 3.80786H15.6928C16.1899 3.80786 16.6155 3.98486 16.9695 4.33886C17.3235 4.69288 17.5005 5.11844 17.5005 5.61554V8.30784H16.0005ZM17.8082 12.3078C18.0915 12.3078 18.329 12.212 18.5207 12.0203C18.7124 11.8286 18.8082 11.5911 18.8082 11.3078C18.8082 11.0245 18.7124 10.787 18.5207 10.5953C18.329 10.4036 18.0915 10.3078 17.8082 10.3078C17.5249 10.3078 17.2874 10.4036 17.0957 10.5953C16.904 10.787 16.8082 11.0245 16.8082 11.3078C16.8082 11.5911 16.904 11.8286 17.0957 12.0203C17.2874 12.212 17.5249 12.3078 17.8082 12.3078ZM16.0005 18.6924V15.0386C16.0005 14.9488 15.9717 14.8751 15.914 14.8174C15.8563 14.7597 15.7826 14.7309 15.6928 14.7309H8.30826C8.21851 14.7309 8.14479 14.7597 8.08709 14.8174C8.02939 14.8751 8.00054 14.9488 8.00054 15.0386V18.6924C8.00054 18.7821 8.02939 18.8559 8.08709 18.9136C8.14479 18.9713 8.21851 19.0001 8.30826 19.0001H15.6928C15.7826 19.0001 15.8563 18.9713 15.914 18.9136C15.9717 18.8559 16.0005 18.7821 16.0005 18.6924Z" fill="#6F7C8E"/>
</g>
</g>
</svg>
