<svg width="25" height="24" viewBox="0 0 25 24" fill="none" xmlns="http://www.w3.org/2000/svg">
<g id="hugeicons:git-pull-request">
<g id="Group">
<path id="Vector" d="M6.33301 8V16M18.333 16V12C18.333 9.172 18.333 7.757 17.454 6.879C16.576 6 15.161 6 12.333 6H11.333M11.333 6C11.333 5.3 13.327 3.992 13.833 3.5M11.333 6C11.333 6.7 13.327 8.008 13.833 8.5" stroke="#14181F" stroke-width="1.5" stroke-linecap="round" stroke-linejoin="round"/>
<path id="Vector_2" d="M6.33301 20C7.43758 20 8.33301 19.1046 8.33301 18C8.33301 16.8954 7.43758 16 6.33301 16C5.22844 16 4.33301 16.8954 4.33301 18C4.33301 19.1046 5.22844 20 6.33301 20Z" stroke="#14181F" stroke-width="1.5" stroke-linecap="round" stroke-linejoin="round"/>
<path id="Vector_3" d="M6.33301 8C7.43758 8 8.33301 7.10457 8.33301 6C8.33301 4.89543 7.43758 4 6.33301 4C5.22844 4 4.33301 4.89543 4.33301 6C4.33301 7.10457 5.22844 8 6.33301 8Z" stroke="#14181F" stroke-width="1.5" stroke-linecap="round" stroke-linejoin="round"/>
<path id="Vector_4" d="M18.333 20C19.4376 20 20.333 19.1046 20.333 18C20.333 16.8954 19.4376 16 18.333 16C17.2284 16 16.333 16.8954 16.333 18C16.333 19.1046 17.2284 20 18.333 20Z" stroke="#14181F" stroke-width="1.5" stroke-linecap="round" stroke-linejoin="round"/>
</g>
</g>
</svg>
