<svg width="24" height="24" viewBox="0 0 24 24" fill="none" xmlns="http://www.w3.org/2000/svg">
<g id="hugeicons:account-setting-02">
<g id="Group">
<path id="Vector" d="M21.3177 7.14096L20.8237 6.28496C20.4507 5.63696 20.2637 5.31296 19.9457 5.18396C19.6287 5.05396 19.2697 5.15696 18.5507 5.35996L17.3307 5.70396C16.8717 5.80996 16.3907 5.74996 15.9727 5.53396L15.6357 5.33996C15.2766 5.10988 15.0005 4.77106 14.8477 4.37296L14.5137 3.37496C14.2937 2.71496 14.1837 2.38496 13.9227 2.19696C13.6617 2.00696 13.3137 2.00696 12.6197 2.00696H11.5047C10.8107 2.00696 10.4637 2.00696 10.2017 2.19696C9.94069 2.38496 9.83169 2.71496 9.61169 3.37496L9.27769 4.37296C9.12456 4.7712 8.8481 5.11004 8.48869 5.33996L8.15169 5.53496C7.73369 5.74996 7.25169 5.80996 6.79369 5.70496L5.57369 5.35996C4.85469 5.15696 4.49569 5.05496 4.17869 5.18396C3.86069 5.31296 3.67369 5.63696 3.30069 6.28396L2.80769 7.14096C2.45769 7.74896 2.28269 8.05196 2.31669 8.37496C2.35069 8.69896 2.58469 8.95896 3.05269 9.47996L4.08369 10.633C4.33569 10.952 4.51469 11.508 4.51469 12.008C4.51469 12.508 4.33569 13.064 4.08469 13.383L3.05269 14.535C2.58469 15.056 2.35069 15.317 2.31669 15.64C2.28269 15.963 2.45669 16.267 2.80669 16.874L3.30069 17.731C3.67369 18.378 3.86069 18.702 4.17869 18.831C4.49669 18.96 4.85469 18.859 5.57369 18.655L6.79369 18.311C7.25258 18.2059 7.73381 18.2661 8.15269 18.481L8.48869 18.675C8.84869 18.905 9.12469 19.245 9.27669 19.643L9.61069 20.64C9.83069 21.3 9.94069 21.63 10.2017 21.82C10.4637 22.008 10.8107 22.008 11.5047 22.008H12.6197C13.3137 22.008 13.6617 22.008 13.9227 21.819C14.1837 21.63 14.2937 21.3 14.5127 20.64L14.8477 19.643C14.9997 19.244 15.2757 18.905 15.6357 18.675L15.9717 18.481C16.3917 18.266 16.8717 18.205 17.3317 18.311L18.5517 18.655C19.2697 18.859 19.6287 18.961 19.9457 18.832C20.2637 18.702 20.4507 18.378 20.8237 17.731L21.3167 16.874C21.6667 16.267 21.8417 15.964 21.8077 15.64C21.7737 15.316 21.5397 15.056 21.0717 14.535L20.0407 13.383C19.7887 13.063 19.6097 12.508 19.6097 12.008C19.6097 11.508 19.7887 10.952 20.0397 10.633L21.0717 9.47996C21.5397 8.95996 21.7737 8.69896 21.8077 8.37496C21.8417 8.05096 21.6677 7.74896 21.3177 7.14096Z" stroke="black" stroke-width="1.5" stroke-linecap="round" stroke-linejoin="round"/>
<path id="Vector_2" d="M8.5 16C8.85469 15.3857 9.36489 14.8755 9.97929 14.5209C10.5937 14.1663 11.2906 13.9798 12 13.98C13.496 13.98 14.801 14.792 15.5 16M14 9.5C14 10.0304 13.7893 10.5391 13.4142 10.9142C13.0391 11.2893 12.5304 11.5 12 11.5C11.4696 11.5 10.9609 11.2893 10.5858 10.9142C10.2107 10.5391 10 10.0304 10 9.5C10 8.96957 10.2107 8.46086 10.5858 8.08579C10.9609 7.71071 11.4696 7.5 12 7.5C12.5304 7.5 13.0391 7.71071 13.4142 8.08579C13.7893 8.46086 14 8.96957 14 9.5Z" stroke="black" stroke-width="1.5" stroke-linecap="round" stroke-linejoin="round"/>
</g>
</g>
</svg>
