<svg width="24" height="24" viewBox="0 0 24 24" fill="none" xmlns="http://www.w3.org/2000/svg">
<g id="iconamoon:ticket-thin">
<path id="Vector" d="M3 10H2.5C2.5 10.1326 2.55268 10.2598 2.64645 10.3536C2.74021 10.4473 2.86739 10.5 3 10.5V10ZM3 14V13.5C2.86739 13.5 2.74021 13.5527 2.64645 13.6464C2.55268 13.7402 2.5 13.8674 2.5 14H3ZM21 10V10.5C21.1326 10.5 21.2598 10.4473 21.3536 10.3536C21.4473 10.2598 21.5 10.1326 21.5 10H21ZM21 14H21.5C21.5 13.8674 21.4473 13.7402 21.3536 13.6464C21.2598 13.5527 21.1326 13.5 21 13.5V14ZM5 5.5H10V4.5H5V5.5ZM10 5.5H19V4.5H10V5.5ZM19 18.5H10V19.5H19V18.5ZM10 18.5H5V19.5H10V18.5ZM9.5 5V19H10.5V5H9.5ZM4.06 10.94C4.3409 11.2213 4.49868 11.6025 4.49868 12C4.49868 12.3975 4.3409 12.7787 4.06 13.06L4.768 13.768C5.00022 13.5358 5.18442 13.2602 5.3101 12.9569C5.43578 12.6535 5.50047 12.3284 5.50047 12C5.50047 11.6716 5.43578 11.3465 5.3101 11.0431C5.18442 10.7398 5.00022 10.4642 4.768 10.232L4.06 10.94ZM19.94 13.06C19.6591 12.7787 19.5013 12.3975 19.5013 12C19.5013 11.6025 19.6591 11.2213 19.94 10.94L19.232 10.232C18.9998 10.4642 18.8156 10.7398 18.6899 11.0431C18.5642 11.3465 18.4995 11.6716 18.4995 12C18.4995 12.3284 18.5642 12.6535 18.6899 12.9569C18.8156 13.2602 18.9998 13.5358 19.232 13.768L19.94 13.06ZM3 10.5C3.385 10.5 3.768 10.646 4.06 10.94L4.768 10.232C4.536 9.9996 4.2604 9.81531 3.957 9.68969C3.6536 9.56407 3.32838 9.49961 3 9.5V10.5ZM3.5 10V7H2.5V10H3.5ZM3.5 17V14H2.5V17H3.5ZM4.06 13.06C3.768 13.354 3.385 13.5 3 13.5V14.5C3.639 14.5 4.28 14.256 4.768 13.768L4.06 13.06ZM19.94 10.94C20.232 10.646 20.615 10.5 21 10.5V9.5C20.361 9.5 19.72 9.744 19.232 10.232L19.94 10.94ZM20.5 7V10H21.5V7H20.5ZM20.5 14V17H21.5V14H20.5ZM21 13.5C20.615 13.5 20.232 13.354 19.94 13.06L19.232 13.768C19.464 14.0004 19.7396 14.1847 20.043 14.3103C20.3464 14.4359 20.6716 14.5004 21 14.5V13.5ZM5 18.5C4.60218 18.5 4.22064 18.342 3.93934 18.0607C3.65804 17.7794 3.5 17.3978 3.5 17H2.5C2.5 17.663 2.76339 18.2989 3.23223 18.7678C3.70107 19.2366 4.33696 19.5 5 19.5V18.5ZM19 19.5C19.663 19.5 20.2989 19.2366 20.7678 18.7678C21.2366 18.2989 21.5 17.663 21.5 17H20.5C20.5 17.3978 20.342 17.7794 20.0607 18.0607C19.7794 18.342 19.3978 18.5 19 18.5V19.5ZM19 5.5C19.3978 5.5 19.7794 5.65804 20.0607 5.93934C20.342 6.22064 20.5 6.60218 20.5 7H21.5C21.5 6.33696 21.2366 5.70107 20.7678 5.23223C20.2989 4.76339 19.663 4.5 19 4.5V5.5ZM5 4.5C4.33696 4.5 3.70107 4.76339 3.23223 5.23223C2.76339 5.70107 2.5 6.33696 2.5 7H3.5C3.5 6.60218 3.65804 6.22064 3.93934 5.93934C4.22064 5.65804 4.60218 5.5 5 5.5V4.5Z" fill="#14181F"/>
</g>
</svg>
