<svg width="34" height="35" viewBox="0 0 34 35" fill="none" xmlns="http://www.w3.org/2000/svg">
<g id="unblock_svgrepo.com">
<path id="Vector" fill-rule="evenodd" clip-rule="evenodd" d="M27.018 27.8509C32.5504 22.3185 32.5504 13.3488 27.018 7.8162C21.4855 2.28381 12.5157 2.28381 6.9833 7.8162C1.45088 13.3488 1.45088 22.3185 6.9833 27.8509C12.5157 33.3833 21.4855 33.3833 27.018 27.8509ZM25.826 24.4329C29.0616 20.1171 28.7169 13.9674 24.7918 10.0424C20.8669 6.11731 14.7171 5.77258 10.4013 9.00825L14.7746 13.3815C15.3893 13.9962 15.3893 14.9929 14.7746 15.6075C14.1599 16.2222 13.1632 16.2222 12.5485 15.6075L8.17523 11.2343C4.93957 15.5501 5.28428 21.6998 9.20937 25.6249C13.1345 29.5499 19.2841 29.8947 23.5999 26.659L19.2267 22.2857C18.612 21.671 18.612 20.6743 19.2267 20.0596C19.8414 19.445 20.8381 19.445 21.4527 20.0596L25.826 24.4329Z" fill="#00A81C"/>
</g>
</svg>
