<svg width="32" height="32" viewBox="0 0 32 32" fill="none" xmlns="http://www.w3.org/2000/svg">
<g id="arrow">
<path id="Vector" d="M18.4405 23.9999C18.2414 24.0005 18.0445 23.9628 17.8646 23.8897C17.6846 23.8165 17.526 23.7097 17.4005 23.5771L10.9605 16.7206C10.7644 16.5161 10.6572 16.2597 10.6572 15.995C10.6572 15.7303 10.7644 15.4738 10.9605 15.2693L17.6272 8.41282C17.8535 8.17945 18.1787 8.0327 18.5313 8.00484C18.8839 7.97698 19.2349 8.07029 19.5072 8.26426C19.7795 8.45823 19.9507 8.73696 19.9832 9.03913C20.0157 9.34131 19.9069 9.64217 19.6805 9.87554L13.7205 16.0007L19.4805 22.1258C19.6436 22.2936 19.7472 22.4978 19.779 22.7144C19.8108 22.931 19.7696 23.1509 19.6602 23.3481C19.5508 23.5452 19.3778 23.7114 19.1616 23.8269C18.9455 23.9424 18.6953 24.0025 18.4405 23.9999Z" fill="#14181F"/>
</g>
</svg>
