<svg xmlns="http://www.w3.org/2000/svg" width="48" height="48" viewBox="0 0 48 48" fill="none">
  <path d="M20.3406 10.0004C20.6394 9.99941 20.9347 10.0654 21.2046 10.1934C21.4746 10.3215 21.7124 10.5084 21.9006 10.7404L31.5606 22.7404C31.8548 23.0983 32.0156 23.5472 32.0156 24.0104C32.0156 24.4737 31.8548 24.9226 31.5606 25.2804L21.5606 37.2804C21.2212 37.6889 20.7333 37.9457 20.2045 37.9945C19.6756 38.0432 19.1491 37.8799 18.7406 37.5404C18.3322 37.2009 18.0754 36.7131 18.0266 36.1843C17.9778 35.6554 18.1412 35.1289 18.4806 34.7204L27.4206 24.0004L18.7807 13.2804C18.5361 12.9869 18.3807 12.6294 18.333 12.2503C18.2852 11.8712 18.347 11.4863 18.5112 11.1413C18.6753 10.7962 18.9348 10.5054 19.259 10.3032C19.5832 10.101 19.9586 9.99596 20.3406 10.0004Z" fill="#21201F"/>
</svg>