<svg width="24" height="24" viewBox="0 0 24 24" fill="none" xmlns="http://www.w3.org/2000/svg">
<path d="M9.85603 5.14244H14.1417C14.1417 4.57412 13.916 4.02907 13.5141 3.62721C13.1122 3.22535 12.5672 2.99958 11.9989 2.99958C11.4306 2.99958 10.8855 3.22535 10.4837 3.62721C10.0818 4.02907 9.85603 4.57412 9.85603 5.14244ZM8.57031 5.14244C8.57031 4.23312 8.93154 3.36105 9.57452 2.71807C10.2175 2.07509 11.0896 1.71387 11.9989 1.71387C12.9082 1.71387 13.7803 2.07509 14.4232 2.71807C15.0662 3.36105 15.4275 4.23312 15.4275 5.14244H20.7846C20.9551 5.14244 21.1186 5.21017 21.2392 5.33073C21.3597 5.45129 21.4275 5.6148 21.4275 5.7853C21.4275 5.95579 21.3597 6.11931 21.2392 6.23986C21.1186 6.36042 20.9551 6.42815 20.7846 6.42815H19.6617L18.6186 18.945C18.5427 19.8556 18.1274 20.7044 17.455 21.3231C16.7827 21.9418 15.9023 22.2852 14.9886 22.2853H9.00917C8.09545 22.2852 7.21512 21.9418 6.54274 21.3231C5.87037 20.7044 5.45506 19.8556 5.37917 18.945L4.33603 6.42815H3.21317C3.04267 6.42815 2.87916 6.36042 2.7586 6.23986C2.63804 6.11931 2.57031 5.95579 2.57031 5.7853C2.57031 5.6148 2.63804 5.45129 2.7586 5.33073C2.87916 5.21017 3.04267 5.14244 3.21317 5.14244H8.57031ZM6.6606 18.8379C6.70962 19.4271 6.97828 19.9763 7.4133 20.3768C7.84832 20.7772 8.41793 20.9995 9.00917 20.9996H14.9886C15.5798 20.9995 16.1495 20.7772 16.5845 20.3768C17.0195 19.9763 17.2882 19.4271 17.3372 18.8379L18.3726 6.42815H5.62603L6.6606 18.8379ZM10.0703 9.42815C10.2408 9.42815 10.4043 9.49588 10.5249 9.61644C10.6454 9.737 10.7132 9.90051 10.7132 10.071V17.3567C10.7132 17.5272 10.6454 17.6907 10.5249 17.8113C10.4043 17.9319 10.2408 17.9996 10.0703 17.9996C9.89982 17.9996 9.7363 17.9319 9.61574 17.8113C9.49519 17.6907 9.42746 17.5272 9.42746 17.3567V10.071C9.42746 9.90051 9.49519 9.737 9.61574 9.61644C9.7363 9.49588 9.89982 9.42815 10.0703 9.42815ZM14.5703 10.071C14.5703 9.90051 14.5026 9.737 14.382 9.61644C14.2615 9.49588 14.098 9.42815 13.9275 9.42815C13.757 9.42815 13.5934 9.49588 13.4729 9.61644C13.3523 9.737 13.2846 9.90051 13.2846 10.071V17.3567C13.2846 17.5272 13.3523 17.6907 13.4729 17.8113C13.5934 17.9319 13.757 17.9996 13.9275 17.9996C14.098 17.9996 14.2615 17.9319 14.382 17.8113C14.5026 17.6907 14.5703 17.5272 14.5703 17.3567V10.071Z" fill="#CD1F18"/>
</svg>
