<svg width="18" height="18" viewBox="0 0 18 18" fill="none" xmlns="http://www.w3.org/2000/svg">
<g id="Forward">
<mask id="mask0_2034_9446" style="mask-type:alpha" maskUnits="userSpaceOnUse" x="0" y="0" width="18" height="18">
<rect id="Bounding box" width="18" height="18" fill="#D9D9D9"/>
</mask>
<g mask="url(#mask0_2034_9446)">
<path id="chevron_right" d="M9.70962 8.99999L6.65482 5.94516C6.55097 5.84133 6.49784 5.7108 6.49544 5.55359C6.49303 5.39639 6.54615 5.26346 6.65482 5.15481C6.76347 5.04615 6.89519 4.99182 7.04999 4.99182C7.20479 4.99182 7.33652 5.04615 7.44517 5.15481L10.8158 8.52548C10.886 8.59567 10.9356 8.66971 10.9644 8.7476C10.9932 8.82547 11.0077 8.9096 11.0077 8.99999C11.0077 9.09038 10.9932 9.17451 10.9644 9.25238C10.9356 9.33027 10.886 9.40431 10.8158 9.4745L7.44517 12.8452C7.34133 12.949 7.2108 13.0021 7.05359 13.0045C6.89639 13.007 6.76347 12.9538 6.65482 12.8452C6.54615 12.7365 6.49182 12.6048 6.49182 12.45C6.49182 12.2952 6.54615 12.1635 6.65482 12.0548L9.70962 8.99999Z" fill="#6F7C8E"/>
</g>
</g>
</svg>
