<svg width="20" height="20" viewBox="0 0 20 20" fill="none" xmlns="http://www.w3.org/2000/svg">
<g id="Growth Indicator">
<circle id="Circle" cx="9.75564" cy="10" r="6.89828" transform="rotate(-45 9.75564 10)" fill="#00A81C"/>
<path id="Arrow" d="M10.3311 8.38507V8.64685C10.3311 10.0476 10.3311 11.4485 10.3311 12.8496C10.3311 13.133 10.1947 13.3314 9.95006 13.4213C9.71319 13.5066 9.48613 13.4564 9.34197 13.2653C9.24195 13.1231 9.18715 12.954 9.18474 12.7801C9.17249 11.4133 9.1778 10.0464 9.1778 8.67952V8.4206C9.12889 8.45524 9.08186 8.49245 9.03691 8.53209C8.76165 8.80489 8.49008 9.08178 8.21278 9.35213C7.99348 9.56654 7.69454 9.56694 7.48422 9.36234C7.25512 9.13896 7.23919 8.85145 7.46462 8.62316C8.09081 7.9888 8.72027 7.35839 9.353 6.73193C9.60906 6.47873 9.89002 6.47301 10.1465 6.72008C10.783 7.33348 11.4149 7.95164 12.0422 8.57456C12.2721 8.80285 12.2578 9.08668 12.0283 9.31252C11.8115 9.52529 11.5321 9.52856 11.303 9.31252C11.0319 9.05524 10.7668 8.79142 10.4985 8.53087C10.456 8.49003 10.4099 8.4545 10.3311 8.38507Z" fill="white"/>
</g>
</svg>
