<svg width="24" height="24" viewBox="0 0 24 24" fill="none" xmlns="http://www.w3.org/2000/svg">
<g id="fluent:image-add-20-regular">
<path id="Vector" d="M12.0002 6.6002C12.0002 8.03236 11.4313 9.40588 10.4186 10.4186C9.40588 11.4313 8.03236 12.0002 6.6002 12.0002C5.16803 12.0002 3.79452 11.4313 2.78182 10.4186C1.76912 9.40588 1.2002 8.03236 1.2002 6.6002C1.2002 5.16803 1.76912 3.79452 2.78182 2.78182C3.79452 1.76912 5.16803 1.2002 6.6002 1.2002C8.03236 1.2002 9.40588 1.76912 10.4186 2.78182C11.4313 3.79452 12.0002 5.16803 12.0002 6.6002ZM7.2002 4.2002C7.2002 4.04107 7.13698 3.88845 7.02446 3.77593C6.91194 3.66341 6.75933 3.6002 6.6002 3.6002C6.44107 3.6002 6.28845 3.66341 6.17593 3.77593C6.06341 3.88845 6.0002 4.04107 6.0002 4.2002V6.0002H4.2002C4.04107 6.0002 3.88845 6.06341 3.77593 6.17593C3.66341 6.28845 3.6002 6.44107 3.6002 6.6002C3.6002 6.75933 3.66341 6.91194 3.77593 7.02446C3.88845 7.13698 4.04107 7.2002 4.2002 7.2002H6.0002V9.0002C6.0002 9.15933 6.06341 9.31194 6.17593 9.42446C6.28845 9.53698 6.44107 9.6002 6.6002 9.6002C6.75933 9.6002 6.91194 9.53698 7.02446 9.42446C7.13698 9.31194 7.2002 9.15933 7.2002 9.0002V7.2002H9.0002C9.15933 7.2002 9.31194 7.13698 9.42446 7.02446C9.53698 6.91194 9.6002 6.75933 9.6002 6.6002C9.6002 6.44107 9.53698 6.28845 9.42446 6.17593C9.31194 6.06341 9.15933 6.0002 9.0002 6.0002H7.2002V4.2002ZM16.8002 4.8002H12.9518C12.8341 4.38576 12.6762 3.98384 12.4802 3.6002H16.8002C17.755 3.6002 18.6707 3.97948 19.3458 4.65461C20.0209 5.32974 20.4002 6.24542 20.4002 7.2002V16.8002C20.4002 17.755 20.0209 18.6707 19.3458 19.3458C18.6707 20.0209 17.755 20.4002 16.8002 20.4002H7.2002C6.24542 20.4002 5.32974 20.0209 4.65461 19.3458C3.97948 18.6707 3.6002 17.755 3.6002 16.8002V12.4802C3.981 12.6754 4.381 12.8326 4.8002 12.9518V16.8002C4.8002 17.2478 4.9226 17.6666 5.1362 18.0242L10.739 12.5186C11.0756 12.1881 11.5285 12.0029 12.0002 12.0029C12.4719 12.0029 12.9248 12.1881 13.2614 12.5186L18.8654 18.0242C19.0848 17.6536 19.2004 17.2308 19.2002 16.8002V7.2002C19.2002 6.56368 18.9473 5.95323 18.4973 5.50314C18.0472 5.05305 17.4367 4.8002 16.8002 4.8002ZM16.8002 9.0002C16.8002 9.23658 16.7536 9.47064 16.6632 9.68903C16.5727 9.90741 16.4401 10.1058 16.273 10.273C16.1058 10.4401 15.9074 10.5727 15.689 10.6632C15.4706 10.7536 15.2366 10.8002 15.0002 10.8002C14.7638 10.8002 14.5298 10.7536 14.3114 10.6632C14.093 10.5727 13.8945 10.4401 13.7274 10.273C13.5603 10.1058 13.4277 9.90741 13.3372 9.68903C13.2468 9.47064 13.2002 9.23658 13.2002 9.0002C13.2002 8.52281 13.3898 8.06497 13.7274 7.7274C14.065 7.38984 14.5228 7.2002 15.0002 7.2002C15.4776 7.2002 15.9354 7.38984 16.273 7.7274C16.6106 8.06497 16.8002 8.52281 16.8002 9.0002ZM15.6002 9.0002C15.6002 8.84107 15.537 8.68845 15.4245 8.57593C15.3119 8.46341 15.1593 8.4002 15.0002 8.4002C14.8411 8.4002 14.6885 8.46341 14.5759 8.57593C14.4634 8.68845 14.4002 8.84107 14.4002 9.0002C14.4002 9.15933 14.4634 9.31194 14.5759 9.42446C14.6885 9.53698 14.8411 9.6002 15.0002 9.6002C15.1593 9.6002 15.3119 9.53698 15.4245 9.42446C15.537 9.31194 15.6002 9.15933 15.6002 9.0002ZM5.9858 18.8714C6.35416 19.087 6.77336 19.2005 7.2002 19.2002H16.8002C17.2442 19.2002 17.6582 19.0802 18.0146 18.8714L12.4202 13.3754C12.308 13.2655 12.1572 13.2039 12.0002 13.2039C11.8431 13.2039 11.6924 13.2655 11.5802 13.3754L5.9858 18.8714Z" fill="#14181F"/>
</g>
</svg>
