<svg width="25" height="24" viewBox="0 0 25 24" fill="none" xmlns="http://www.w3.org/2000/svg">
<g id="hugeicons:note">
<g id="Group">
<path id="Vector" d="M13.2131 7.01723L17.9871 8.28823M12.1911 10.8132L14.5771 11.4492M12.3101 17.9662L13.2641 18.2212C15.9641 18.9412 17.3141 19.3002 18.3781 18.6892C19.4411 18.0792 19.8031 16.7362 20.5261 14.0522L21.5491 10.2552C22.2731 7.57023 22.6341 6.22823 22.0201 5.17023C21.4061 4.11223 20.0571 3.75323 17.3561 3.03423L16.4021 2.77923C13.7021 2.05923 12.3521 1.70023 11.2891 2.31123C10.2251 2.92123 9.86312 4.26423 9.13912 6.94823L8.11712 10.7452C7.39312 13.4302 7.03112 14.7722 7.64612 15.8302C8.26012 16.8872 9.61012 17.2472 12.3101 17.9662Z" stroke="#14181F" stroke-width="1.5" stroke-linecap="round" stroke-linejoin="round"/>
<path id="Vector_2" d="M12.333 20.9462L11.381 21.2062C8.68703 21.9392 7.34103 22.3062 6.27903 21.6832C5.21903 21.0612 4.85703 19.6932 4.13603 16.9552L3.11503 13.0832C2.39303 10.3462 2.03203 8.97716 2.64503 7.89916C3.17503 6.96616 4.33303 7.00016 5.83303 7.00016" stroke="#14181F" stroke-width="1.5" stroke-linecap="round" stroke-linejoin="round"/>
</g>
</g>
</svg>
