<svg width="34" height="35" viewBox="0 0 34 35" fill="none" xmlns="http://www.w3.org/2000/svg">
<g id="mdi:account-reactivate-outline">
<path id="Vector" d="M30.459 13.5841H23.3757L26.0107 10.9491C24.9527 9.56405 23.5891 8.44198 22.0263 7.6704C20.4635 6.89881 18.7436 6.49855 17.0007 6.50081C10.739 6.50081 5.66732 11.5725 5.66732 17.8341C5.66732 20.4266 6.53148 22.7925 7.99065 24.705C9.71898 22.7216 12.9632 21.3758 17.0007 21.3758C21.0382 21.3758 24.2965 22.7216 26.0107 24.705C27.5216 22.7336 28.3384 20.318 28.334 17.8341H31.1673C31.1673 25.6258 24.7923 32.0008 17.0007 32.0008C9.20898 32.0008 2.83398 25.6258 2.83398 17.8341C2.83398 10.0425 9.20898 3.66748 17.0007 3.66748C21.449 3.66748 25.4298 5.72165 28.0223 8.93748L30.459 6.50081V13.5841ZM17.0007 29.1675C19.6923 29.1675 22.1573 28.2325 24.084 26.6741C23.1773 25.2433 20.4715 24.2091 17.0007 24.2091C13.5298 24.2091 10.824 25.2433 9.91732 26.6741C11.844 28.2325 14.309 29.1675 17.0007 29.1675ZM17.0007 9.33415C19.7348 9.33415 21.959 11.5583 21.959 14.2925C21.959 17.0266 19.7348 19.2508 17.0007 19.2508C14.2665 19.2508 12.0423 17.0266 12.0423 14.2925C12.0423 11.5583 14.2665 9.33415 17.0007 9.33415ZM17.0007 12.1675C15.8248 12.1675 14.8757 13.1166 14.8757 14.2925C14.8757 15.4683 15.8248 16.4175 17.0007 16.4175C18.1765 16.4175 19.1257 15.4683 19.1257 14.2925C19.1257 13.1166 18.1765 12.1675 17.0007 12.1675Z" fill="#00A81C"/>
</g>
</svg>
