<svg width="48" height="48" viewBox="0 0 48 48" fill="none" xmlns="http://www.w3.org/2000/svg">
<g id="FacebookProfile 1" clip-path="url(#clip0_1373_7235)">
<g id="Group">
<path id="Vector" d="M24 48C37.2548 48 48 37.2548 48 24C48 10.7452 37.2548 0 24 0C10.7452 0 0 10.7452 0 24C0 37.2548 10.7452 48 24 48Z" fill="#C5CCDE"/>
<path id="Vector_2" d="M40.5218 41.3896C37.4227 44.3536 33.5408 46.4761 29.2125 47.4189L29.2043 47.4271C27.5287 47.8059 25.785 48.0001 24 48.0001C21.8108 48.0001 19.7055 47.7054 17.6925 47.1579H17.6842C13.5915 46.0464 9.93675 43.8819 7.03125 40.9681C7.755 40.2639 8.7045 39.6421 9.8325 39.1231C10.383 38.8696 10.9657 38.6904 11.5545 38.5486C12.2768 38.3746 12.9615 38.1661 13.5997 37.9201C15.3855 37.2466 16.8307 36.3339 17.766 35.2681C18.4192 34.5234 18.7365 33.5431 18.7365 32.5531V32.0274C18.7365 31.5339 18.5197 31.0779 18.1672 30.7329C17.6355 30.2124 17.121 29.4721 16.6987 28.5901C16.581 28.3374 16.4715 28.0764 16.3702 27.8071C16.2533 27.4959 16.1535 27.1846 16.071 26.8786C15.9637 26.4826 15.678 26.1796 15.33 25.9621C14.601 25.5069 14.1052 24.6106 14.1052 23.5801C14.1052 23.3019 14.139 23.0326 14.2065 22.7799C14.2065 22.7716 14.2147 22.7634 14.2147 22.7544C14.2987 22.5774 14.3835 22.3839 14.442 22.1731C14.6355 21.6001 14.7368 20.9266 14.7368 20.2111C14.7368 20.0514 14.7285 19.8909 14.7203 19.7394C14.6865 19.1416 14.5687 18.5859 14.409 18.1059C14.409 18.1059 14.4008 18.0976 14.4008 18.0894C14.3415 17.5081 14.3168 16.9104 14.3168 16.4221C14.3168 13.8624 14.982 12.3886 16.7333 10.7124C18.4845 9.03613 20.481 8.42188 23.1585 8.42188C24.3038 8.42188 26.535 8.87638 28.2113 9.26413C29.7015 9.60913 30.6112 9.78613 32.001 11.3694C33.3907 12.9526 33.264 15.9504 33.264 17.2644V17.2809C33.264 18.5019 33.0112 19.6644 32.565 20.7339C32.5147 20.8434 32.4637 20.9611 32.4135 21.0706C32.4052 21.0961 32.388 21.1126 32.3797 21.1381C32.5058 21.2641 32.6152 21.4074 32.7 21.5679C32.7922 21.9804 32.9355 22.3509 33.1125 22.6711C33.1545 22.8819 33.1717 23.1009 33.1717 23.3281C33.1717 24.3331 32.7668 25.2256 32.1495 25.7574C31.7633 26.0896 31.521 26.5486 31.38 27.0384C31.2668 27.4321 31.1145 27.8409 30.9232 28.2541C30.831 28.4814 30.7125 28.7004 30.5947 28.9276C30.267 29.5291 29.895 30.0736 29.5072 30.5356C29.2125 30.8874 29.0535 31.3299 29.0535 31.7896V33.5431C29.0535 34.4791 29.4277 35.3949 30.141 36.0024C31.029 36.7584 32.1908 37.4109 33.5588 37.9216C34.4092 38.2501 35.3438 38.5111 36.3375 38.7129C38.1398 39.3864 39.5962 40.3126 40.5225 41.3911L40.5218 41.3896Z" fill="white"/>
</g>
</g>
<defs>
<clipPath id="clip0_1373_7235">
<rect width="48" height="48" fill="white"/>
</clipPath>
</defs>
</svg>
